<svg width="114" height="115" viewBox="0 0 114 115" fill="none" xmlns="http://www.w3.org/2000/svg">
<g id="Group">
<g id="Layer 2">
<g id="Group_2">
<path id="Vector" d="M103.368 106.586L92.175 89.8335C91.6943 89.1149 91.0436 88.5262 90.2807 88.1195C89.5178 87.7129 88.6663 87.5009 87.8017 87.5025C86.7653 87.5007 85.7522 87.8098 84.8932 88.3898C83.7361 89.1624 82.933 90.3627 82.6603 91.7271C82.3876 93.0914 82.6677 94.5082 83.439 95.6663L94.6215 112.414C95.0041 112.987 95.496 113.48 96.069 113.864C96.642 114.247 97.285 114.514 97.9612 114.649C98.6373 114.784 99.3335 114.785 100.01 114.651C100.686 114.517 101.33 114.251 101.903 113.868C102.477 113.485 102.969 112.993 103.353 112.42C103.737 111.847 104.003 111.204 104.138 110.528C104.274 109.852 104.274 109.156 104.14 108.48C104.006 107.803 103.74 107.16 103.357 106.586H103.368Z" fill="black"/>
<path id="Vector_2" d="M26.1825 87.5025C25.3184 87.5024 24.4676 87.7155 23.7056 88.1231C22.9437 88.5306 22.2941 89.1199 21.8145 89.8387L10.632 106.586C9.85923 107.745 9.5783 109.163 9.85103 110.528C10.1238 111.894 10.9278 113.095 12.0863 113.868C13.2447 114.641 14.6627 114.922 16.0283 114.649C17.3939 114.376 18.5952 113.572 19.368 112.414L30.5505 95.6663C31.3218 94.5082 31.6019 93.0914 31.3292 91.7271C31.0565 90.3627 30.2534 89.1624 29.0963 88.3898C28.2353 87.81 27.2205 87.501 26.1825 87.5025V87.5025Z" fill="black"/>
<path id="Vector_3" d="M4.5 24.1875C3.67359 24.1875 2.86812 23.9275 2.1977 23.4443C1.52728 22.9611 1.02589 22.2792 0.76456 21.4952C0.503225 20.7112 0.495194 19.8648 0.741603 19.076C0.988012 18.2872 1.47637 17.5959 2.1375 17.1L23.1375 1.35002C23.9729 0.723442 25.0231 0.454405 26.0568 0.60209C26.5687 0.675216 27.0612 0.848449 27.5061 1.1119C27.9511 1.37535 28.3398 1.72385 28.65 2.13752C28.9602 2.55118 29.186 3.0219 29.3143 3.5228C29.4426 4.02371 29.4711 4.54498 29.3979 5.05686C29.3248 5.56875 29.1516 6.06121 28.8881 6.50615C28.6247 6.95108 28.2762 7.33977 27.8625 7.65002L6.8625 23.4C6.18129 23.9119 5.35208 24.1883 4.5 24.1875V24.1875Z" fill="#8789A3"/>
<path id="Vector_4" d="M109.5 24.1875C108.65 24.1871 107.823 23.9108 107.143 23.4L86.1428 7.65C85.7291 7.33975 85.3806 6.95106 85.1171 6.50613C84.8537 6.0612 84.6804 5.56873 84.6073 5.05685C84.5342 4.54496 84.5626 4.02369 84.6909 3.52279C84.8193 3.02188 85.045 2.55116 85.3552 2.1375C85.6655 1.72384 86.0542 1.37533 86.4991 1.11188C86.9441 0.848433 87.4365 0.6752 87.9484 0.602074C88.4603 0.528948 88.9816 0.557361 89.4825 0.68569C89.9834 0.814019 90.4541 1.03975 90.8678 1.35L111.868 17.1C112.529 17.5961 113.018 18.2879 113.264 19.0772C113.51 19.8666 113.502 20.7134 113.24 21.4976C112.978 22.2819 112.476 22.9638 111.804 23.4466C111.133 23.9294 110.327 24.1886 109.5 24.1875Z" fill="#8789A3"/>
<path id="Vector_5" d="M57 110.812C85.2701 110.812 108.188 87.8951 108.188 59.625C108.188 31.3549 85.2701 8.4375 57 8.4375C28.7299 8.4375 5.8125 31.3549 5.8125 59.625C5.8125 87.8951 28.7299 110.812 57 110.812Z" fill="white"/>
</g>
<path id="Vector_6" d="M72.75 74.0625C72.1411 74.0634 71.5405 73.9213 70.9965 73.6478L55.2465 63.1478C54.5915 62.8214 54.0406 62.3188 53.6557 61.6965C53.2708 61.0742 53.0672 60.3568 53.0678 59.625V38.625C53.0678 37.5807 53.4826 36.5792 54.221 35.8408C54.9594 35.1023 55.961 34.6875 57.0053 34.6875C58.0495 34.6875 59.0511 35.1023 59.7895 35.8408C60.5279 36.5792 60.9428 37.5807 60.9428 38.625V57.1943L74.514 66.6023C75.3081 66.9988 75.945 67.652 76.3212 68.4559C76.6975 69.2598 76.7911 70.1673 76.5868 71.0311C76.3826 71.8948 75.8925 72.6643 75.196 73.2146C74.4996 73.7648 73.6376 74.0636 72.75 74.0625V74.0625Z" fill="black"/>
</g>
</g>
</svg>
