<svg width="25" height="24" viewBox="0 0 25 24" fill="none" xmlns="http://www.w3.org/2000/svg">
<g id="search-line 1">
<g clip-path="url(#clip0_217_1309)">
<g id="Group">
<path id="Vector" d="M18.1653 16.617L22.4802 20.899L21.0547 22.314L16.7408 18.031C15.1357 19.3082 13.1392 20.0029 11.0819 20C6.07693 20 2.0149 15.968 2.0149 11C2.0149 6.032 6.07693 2 11.0819 2C16.0869 2 20.149 6.032 20.149 11C20.1519 13.042 19.452 15.0237 18.1653 16.617ZM16.1444 15.875C17.4229 14.5699 18.137 12.8204 18.1341 11C18.1341 7.132 14.9777 4 11.0819 4C7.18513 4 4.0298 7.132 4.0298 11C4.0298 14.867 7.18513 18 11.0819 18C12.9159 18.0029 14.6784 17.2941 15.9933 16.025L16.1444 15.875V15.875Z" fill="#757575"/>
</g>
</g>
</g>
<defs>
<clipPath id="clip0_217_1309">
<rect width="24.1788" height="24" rx="12" fill="white"/>
</clipPath>
</defs>
</svg>
